<?xml version="1.0" encoding="utf-8"?>
<!-- Generator: Adobe Illustrator 24.1.0, SVG Export Plug-In . SVG Version: 6.00 Build 0)  -->
<svg version="1.0" xmlns="http://www.w3.org/2000/svg" xmlns:xlink="http://www.w3.org/1999/xlink" x="0px" y="0px"
	 viewBox="0 0 640 480" style="enable-background:new 0 0 640 480;" xml:space="preserve">
<style type="text/css">
	.st0{fill:#FFFFFF;}
	.st1{font-family:'DINAlternate-Bold';}
	.st2{font-size:59.7744px;}
</style>
<g id="Layer_1">
	<text transform="matrix(1 0 0 1 118.7923 349.9648)"><tspan x="0" y="0" class="st0 st1 st2">STOP TOUCHING </tspan><tspan x="48.7" y="71.73" class="st0 st1 st2">YOUR FACE!!!</tspan></text>
	<g>
		<g>
			<path class="st0" d="M240.72,181.19C240.73,181.19,240.73,181.19,240.72,181.19c2.03-0.18,3.92-0.8,5.62-1.85
				c7.1-4.34,16.46-5.84,27.83-4.44l14.8,1.84c0.34,1.29,0.75,2.63,1.28,4.07c-6.93,5.15-13.78,7.97-20.37,8.37
				c-1.99,0.12-3.9,0.7-5.66,1.71c-6.36,3.67-8.55,11.84-4.88,18.2c3.66,6.35,11.83,8.54,18.21,4.88c1.75-1.01,3.21-2.37,4.31-4.05
				c3.65-5.52,9.54-10.05,17.52-13.48c0.11,0.14,0.23,0.28,0.34,0.42l-4.14,18.08c-2.56,11.16-7.16,19.45-13.69,24.63
				c-1.56,1.24-2.79,2.81-3.65,4.66c-1.5,3.22-1.66,6.84-0.44,10.19c1.22,3.34,3.66,6.01,6.89,7.52c3.22,1.51,6.85,1.67,10.19,0.45
				c3.35-1.22,6.02-3.67,7.52-6.9c0.85-1.83,1.26-3.77,1.21-5.79c-0.23-8.33,3.16-17.18,10.07-26.32l6-7.93l5.68,13.99
				c4.31,10.61,5.29,20.04,2.92,28.02c-0.57,1.92-0.68,3.9-0.33,5.91c0.61,3.5,2.56,6.56,5.48,8.61c2.92,2.05,6.47,2.86,9.96,2.21
				c7.24-1.28,12.09-8.2,10.81-15.44c-0.35-1.99-1.14-3.83-2.33-5.44c-4.96-6.69-7.26-15.88-6.84-27.33l0.5-13.74l12.99,12.07
				c8.39,7.8,13.26,15.93,14.49,24.17c0.3,1.97,1.03,3.82,2.2,5.5c4.21,6.02,12.55,7.49,18.56,3.26c6.01-4.21,7.48-12.53,3.27-18.56
				c-1.17-1.66-2.66-2.98-4.41-3.94c-7.33-3.98-13.3-11.34-17.75-21.88l-5.79-13.7c0.84-0.84,1.69-1.75,2.53-2.74
				c8.01,3.44,13.91,7.98,17.56,13.5c1.1,1.68,2.56,3.04,4.31,4.06c6.37,3.66,14.53,1.47,18.21-4.88
				c3.66-6.37,1.48-14.53-4.89-18.21c-1.76-1.01-3.67-1.59-5.66-1.71c-5.96-0.36-12.13-2.7-18.39-6.97l17.1-6.93
				c10.61-4.31,20.04-5.27,28.02-2.93c1.93,0.59,3.91,0.7,5.91,0.33c3.5-0.61,6.56-2.56,8.61-5.48c2.04-2.92,2.82-6.46,2.2-9.95
				c-0.61-3.51-2.56-6.57-5.48-8.61c-2.91-2.03-6.44-2.8-9.96-2.21c-2,0.35-3.83,1.13-5.43,2.32c-6.7,4.97-15.9,7.19-27.33,6.85
				l-14.08-0.51c-0.41-1.97-0.93-3.86-1.54-5.66c6.94-5.16,13.79-7.99,20.36-8.38c1.98-0.11,3.89-0.69,5.68-1.71
				c6.36-3.68,8.55-11.85,4.88-18.21c-3.66-6.36-11.85-8.56-18.21-4.87c-1.76,1.02-3.21,2.38-4.31,4.05
				c-3.65,5.52-9.54,10.05-17.52,13.48c-0.11-0.15-0.23-0.29-0.35-0.43l4.14-18.08c2.56-11.17,7.16-19.45,13.7-24.63
				c1.56-1.25,2.79-2.81,3.65-4.65c3.1-6.64,0.21-14.59-6.45-17.71c-3.23-1.5-6.85-1.67-10.19-0.45c-3.35,1.23-6.02,3.68-7.52,6.9
				c-0.85,1.83-1.26,3.78-1.21,5.79c0.23,8.34-3.16,17.19-10.07,26.32l-7.28,9.63l-4.45-14.45c-3.37-10.94-3.52-20.42-0.46-28.17
				c0.73-1.85,1.02-3.82,0.84-5.85c-0.61-6.93-6.64-12.72-14.44-12.12c-3.55,0.27-6.76,1.98-9.05,4.71
				c-2.29,2.73-3.37,6.18-3.07,9.72c0.18,2.01,0.8,3.9,1.85,5.63c4.36,7.1,5.85,16.46,4.44,27.82l-1.61,12.93l-11.6-10.79
				c-8.39-7.79-13.26-15.92-14.49-24.15c-0.3-1.99-1.04-3.84-2.2-5.51c-2.04-2.92-5.1-4.86-8.6-5.48c-3.5-0.6-7.04,0.18-9.96,2.21
				c-2.91,2.04-4.86,5.1-5.48,8.6c-0.62,3.51,0.17,7.05,2.21,9.96c1.17,1.67,2.65,3,4.41,3.95c7.33,3.98,13.31,11.34,17.75,21.89
				l5.79,13.68c-0.85,0.85-1.69,1.77-2.54,2.75c-8-3.44-13.9-7.96-17.55-13.49c-1.1-1.67-2.55-3.03-4.32-4.06
				c-6.36-3.66-14.54-1.47-18.21,4.88c-3.67,6.36-1.48,14.53,4.89,18.21c1.78,1.02,3.69,1.59,5.66,1.71
				c6.61,0.4,13.47,3.24,20.44,8.43c0,0-0.01,0.01-0.01,0.02l-17.88,5.5c-10.97,3.37-20.44,3.5-28.18,0.47
				c-1.87-0.74-3.84-0.99-5.85-0.84c-3.55,0.31-6.76,1.98-9.05,4.71c-2.29,2.73-3.38,6.18-3.07,9.72
				C226.93,176.39,233.42,181.79,240.72,181.19z M233.43,162.77c1.37-1.63,3.31-2.63,5.43-2.82c1.2-0.09,2.34,0.06,3.43,0.49
				c8.89,3.52,19.55,3.39,31.7-0.32l19.26-5.92c0.83-0.26,1.49-0.92,1.75-1.75c0,0,0.68-2.36,0.91-2.94
				c0.43-1.09,0.1-2.34-0.82-3.07c-8.34-6.6-16.71-10.19-24.91-10.7c-1.15-0.06-2.26-0.4-3.31-1c-3.82-2.2-5.13-7.1-2.93-10.92
				c1.07-1.85,2.8-3.18,4.86-3.73c2.07-0.56,4.22-0.28,6.07,0.79c1.04,0.6,1.89,1.41,2.54,2.38c4.54,6.86,11.88,12.33,21.83,16.25
				c1.09,0.44,2.33,0.1,3.06-0.81c1.55-1.95,3.06-3.58,4.62-5.01c0.83-0.76,1.09-1.97,0.66-3.01l-6.5-15.38
				c-4.93-11.68-11.7-19.93-20.13-24.49c-1.02-0.55-1.9-1.33-2.59-2.32c-1.22-1.75-1.69-3.87-1.32-5.98
				c0.37-2.1,1.54-3.94,3.29-5.15c1.75-1.24,3.89-1.71,5.98-1.33c2.1,0.37,3.94,1.54,5.16,3.29c0.68,0.98,1.12,2.06,1.29,3.23
				c1.41,9.46,6.84,18.65,16.13,27.29l14.3,13.29c0.67,0.6,1.59,0.83,2.48,0.62c0.08-0.02,1.11-0.35,1.19-0.37
				c1.11-0.24,1.96-1.16,2.1-2.28l2.07-16.65c1.57-12.6-0.18-23.11-5.17-31.27c-0.62-1.01-0.98-2.13-1.09-3.31
				c-0.19-2.12,0.47-4.21,1.84-5.84c1.37-1.63,3.3-2.63,5.42-2.82c4.34-0.4,8.28,2.87,8.67,7.27c0.1,1.2-0.06,2.35-0.49,3.44
				c-3.52,8.9-3.41,19.57,0.33,31.69l5.92,19.26c0.23,0.77,0.86,1.41,1.61,1.71c0.35,0.16,0.72,0.23,1.08,0.23
				c0.81,0,1.61-0.37,2.12-1.06l10.33-13.66c7.66-10.12,11.41-20.1,11.15-29.67c-0.03-1.18,0.21-2.32,0.71-3.4
				c0.91-1.94,2.5-3.4,4.51-4.13c2.01-0.74,4.19-0.64,6.11,0.26c4,1.87,5.74,6.64,3.87,10.62c-0.51,1.09-1.23,2.02-2.14,2.74
				c-7.5,5.96-12.73,15.24-15.57,27.62l-4.45,19.41c-0.2,0.86,0.05,1.76,0.65,2.42c0.62,0.67,2.26,2.76,2.26,2.76
				c0.73,0.93,1.98,1.25,3.07,0.82c9.95-3.93,17.29-9.39,21.83-16.25c0.64-0.98,1.49-1.78,2.52-2.37c3.82-2.22,8.72-0.88,10.92,2.93
				c2.21,3.82,0.89,8.73-2.92,10.92c-1.05,0.6-2.17,0.94-3.33,1c-8.18,0.51-16.55,4.1-24.89,10.7c-0.92,0.73-1.25,1.98-0.82,3.07
				c1.04,2.62,1.82,5.52,2.34,8.62c0.21,1.25,1.26,2.18,2.53,2.23l16.21,0.59c12.71,0.45,23.01-2.19,30.7-7.89
				c0.94-0.7,2.02-1.16,3.2-1.36c2.1-0.39,4.22,0.1,5.97,1.33c1.75,1.22,2.92,3.05,3.29,5.16c0.37,2.1-0.1,4.22-1.32,5.97
				c-1.23,1.75-3.06,2.92-5.17,3.29c-1.16,0.21-2.33,0.15-3.46-0.19c-9.17-2.73-19.78-1.69-31.54,3.09l-21.16,8.58
				c-0.67,0.27-1.31,1.12-1.57,1.8c-0.44,1.09-0.1,2.34,0.82,3.08c8.33,6.6,16.71,10.19,24.89,10.69c1.17,0.07,2.29,0.41,3.32,1
				c3.82,2.21,5.13,7.11,2.93,10.93c-2.21,3.82-7.11,5.13-10.93,2.93c-1.03-0.6-1.88-1.4-2.53-2.37
				c-4.53-6.86-11.88-12.33-21.83-16.25c-1.07-0.41-2.33-0.1-3.06,0.81c-1.57,1.97-3.08,3.6-4.61,4.99
				c-0.83,0.76-1.1,1.97-0.66,3.01l6.5,15.39c4.94,11.69,11.71,19.93,20.13,24.49c1.03,0.56,1.9,1.34,2.58,2.31
				c2.53,3.62,1.65,8.61-1.96,11.14c-3.61,2.52-8.61,1.64-11.14-1.96c-0.69-0.98-1.12-2.07-1.3-3.22
				c-1.41-9.46-6.83-18.65-16.13-27.29l-14.3-13.28c-0.64-0.6-1.55-0.86-2.43-0.64c-0.95,0.22-1.92,0.4-2.9,0.56
				c-1.25,0.2-2.19,1.27-2.23,2.53l-0.59,16.21c-0.46,12.69,2.2,23.02,7.89,30.7c0.7,0.94,1.16,2.01,1.36,3.19
				c0.76,4.34-2.15,8.5-6.49,9.27c-2.1,0.39-4.22-0.1-5.97-1.33c-1.75-1.23-2.92-3.06-3.29-5.16c-0.21-1.18-0.14-2.34,0.19-3.46
				c2.72-9.18,1.68-19.79-3.09-31.55l-7.44-18.34c-0.36-0.88-1.17-1.51-2.12-1.64c-0.93-0.1-1.9,0.27-2.47,1.04l-8.83,11.67
				c-7.66,10.12-11.41,20.1-11.15,29.67c0.03,1.18-0.21,2.33-0.71,3.4c-0.9,1.94-2.5,3.4-4.51,4.13c-2,0.74-4.17,0.64-6.12-0.27
				c-1.94-0.9-3.4-2.5-4.13-4.51c-0.73-2-0.63-4.17,0.27-6.11c0.51-1.09,1.23-2.01,2.14-2.74c7.5-5.95,12.74-15.24,15.57-27.62
				l4.45-19.41c0.2-0.86-0.05-1.78-0.66-2.42c-0.61-0.65-2.26-2.75-2.26-2.75c-0.73-0.91-1.97-1.22-3.06-0.81
				c-9.95,3.93-17.29,9.39-21.83,16.25c-0.65,0.98-1.5,1.77-2.53,2.37c-3.82,2.22-8.72,0.89-10.92-2.93
				c-2.21-3.82-0.89-8.72,2.92-10.92c1.04-0.6,2.16-0.94,3.33-1.01c8.18-0.5,16.56-4.1,24.89-10.69c0.92-0.73,1.25-1.98,0.82-3.07
				c-1.04-2.63-1.72-4.84-2.16-6.94c-0.23-1.12-1.15-1.97-2.29-2.11l-16.65-2.07c-12.6-1.55-23.12,0.18-31.28,5.19
				c-0.99,0.61-2.1,0.98-3.29,1.08c-4.43,0.4-8.28-2.88-8.66-7.27C231.41,166.48,232.07,164.41,233.43,162.77z"/>
			<path class="st0" d="M317.58,165.48c4.48,0.69,8.52,2.73,11.69,5.89c3.18,3.18,5.21,7.22,5.89,11.68
				c0.4,2.59,1.96,4.88,4.19,6.13c2.01,1.13,4.36,1.28,6.48,0.4c12.01-5.01,18.48-17.49,15.72-30.34
				c-2.13-9.91-10.09-17.83-20.14-20.14c-11.52-2.64-24.79,2.58-30.35,15.7c-0.89,2.11-0.73,4.48,0.41,6.5
				C312.71,163.53,315.01,165.1,317.58,165.48z M315.97,156.87c4.01-9.61,14-14.78,24.32-12.56c7.9,1.7,14.34,8.15,16.04,16.05
				c2.21,10.3-2.94,20.27-12.55,24.3c-1.59,0.67-3.1-0.87-3.34-2.43c-0.86-5.58-3.41-10.65-7.39-14.64c-3.98-3.98-9-6.5-14.65-7.39
				C317.06,160,315.24,158.61,315.97,156.87z"/>
		</g>
	</g>
</g>
<g id="Layer_2">
</g>
</svg>
